<svg width="144" height="149" viewBox="0 0 144 149" fill="none" xmlns="http://www.w3.org/2000/svg">
<path d="M71.8415 143.958C111.33 143.958 143.341 111.947 143.341 72.4585C143.341 32.9701 111.33 0.958496 71.8415 0.958496C32.3532 0.958496 0.341553 32.9701 0.341553 72.4585C0.341553 111.947 32.3532 143.958 71.8415 143.958Z" fill="#F9F9F9"/>
<path d="M45.4583 46.6634L31.1729 91.971C30.1867 95.0988 32.3762 98.5768 36.0632 99.7393L116.176 124.999C119.863 126.161 123.651 124.568 124.637 121.44L138.923 76.1326C139.909 73.0048 137.719 69.5267 134.032 68.3642L53.92 43.1049C50.233 41.9424 46.4445 43.5356 45.4583 46.6634Z" fill="#B7F9BA" stroke="#5FCC48" stroke-width="2"/>
<path d="M18.4455 80.4802L12.3774 126.572C11.8388 130.663 15.3972 134.505 20.3252 135.154L103.607 146.118C108.535 146.767 112.966 143.977 113.505 139.886L119.573 93.7939C120.112 89.7028 116.553 85.8604 111.625 85.2116L28.3438 74.2474C23.4157 73.5986 18.9841 76.3892 18.4455 80.4802Z" fill="#FAFAFA" stroke="#5FCC48" stroke-width="2"/>
<path d="M96.0368 136.351C98.7834 136.829 101.398 134.99 101.876 132.244C102.354 129.497 100.516 126.883 97.769 126.404C95.0223 125.926 92.408 127.765 91.9297 130.512C91.4513 133.258 93.2901 135.873 96.0368 136.351Z" fill="#B7F9BA"/>
<path d="M60.4075 131.299C72.6301 133.427 84.264 125.245 86.3926 113.022C88.5211 100.8 80.3384 89.1657 68.1158 87.0371C55.8932 84.9085 44.2593 93.0913 42.1307 105.314C40.0021 117.536 48.1849 129.17 60.4075 131.299Z" fill="#B7F9BA"/>
<path d="M30.7976 91.6829C33.5442 92.1612 36.1586 90.3224 36.6369 87.5757C37.1153 84.8291 35.2764 82.2147 32.5298 81.7364C29.7831 81.2581 27.1688 83.0969 26.6904 85.8435C26.2121 88.5902 28.0509 91.2046 30.7976 91.6829Z" fill="#B7F9BA"/>
<path d="M72.8238 104.134L70.6385 103.814C70.6158 102.958 70.5333 102.106 70.3918 101.262L73.1841 101.671C74.5251 101.867 75.7735 100.924 75.9724 99.5634C76.1714 98.2032 75.2456 96.9416 73.9045 96.7455L58.9714 94.5612C57.6303 94.3651 56.382 95.3086 56.183 96.6688C55.9841 98.0289 56.9099 99.2905 58.251 99.4866L62.6216 100.126C63.8356 100.303 64.7484 101.695 65.2965 103.033L57.8907 101.949C56.5497 101.753 55.3013 102.697 55.1024 104.057C54.9034 105.417 55.8292 106.679 57.1703 106.875L64.5761 107.958C64.4548 107.94 64.4368 108.063 64.2972 108.169C63.4207 108.722 62.3748 108.927 61.3608 108.746L56.9902 108.106C55.9979 107.963 55.0236 108.478 54.5707 109.387C54.0987 110.284 54.1809 111.375 54.7814 112.185L63.849 123.95C64.2466 124.449 64.8278 124.761 65.4586 124.815C66.8022 124.992 68.0375 124.03 68.2176 122.668C68.3014 122.033 68.1414 121.392 67.7706 120.876L62.2365 113.779C65.5416 113.758 68.5409 111.79 69.9179 108.739L72.1032 109.059C73.4443 109.255 74.6926 108.312 74.8916 106.951C75.0907 105.591 74.1647 104.33 72.8238 104.134Z" fill="#5FCC48"/>
<path d="M29.9752 61.8543C30.0834 61.0329 29.5052 60.2794 28.6838 60.1713C27.8625 60.0632 27.109 60.6414 27.0009 61.4627L26.0872 68.4028C25.9791 69.2241 26.5572 69.9776 27.3786 70.0858C28.1999 70.1939 28.9534 69.6157 29.0615 68.7944L29.9752 61.8543Z" fill="#5FCC48"/>
<path d="M5.98355 79.3728C5.16221 79.2646 4.40873 79.8428 4.3006 80.6642C4.19246 81.4855 4.77063 82.239 5.59197 82.3471L12.5321 83.2608C13.3535 83.3689 14.1069 82.7908 14.2151 81.9694C14.3232 81.1481 13.745 80.3946 12.9237 80.2865L5.98355 79.3728Z" fill="#5FCC48"/>
<path d="M14.5834 65.2426C14.079 64.5853 13.1374 64.4614 12.4802 64.9657C11.823 65.47 11.699 66.4116 12.2033 67.0688L16.4646 72.6223C16.9689 73.2796 17.9106 73.4035 18.5678 72.8992C19.225 72.3949 19.349 71.4533 18.8447 70.796L14.5834 65.2426Z" fill="#5FCC48"/>
</svg>
