<svg width="144" height="186" viewBox="0 0 144 186" fill="none" xmlns="http://www.w3.org/2000/svg">
<path d="M71.8413 143.958C111.33 143.958 143.341 111.947 143.341 72.4585C143.341 32.9701 111.33 0.958496 71.8413 0.958496C32.3529 0.958496 0.341309 32.9701 0.341309 72.4585C0.341309 111.947 32.3529 143.958 71.8413 143.958Z" fill="#F9F9F9"/>
<path d="M106.732 73.7492L50.7853 71.3066C46.923 71.1379 43.6553 74.1322 43.4867 77.9946L39.8226 161.915C39.654 165.777 42.6483 169.045 46.5106 169.213L102.457 171.656C106.32 171.825 109.587 168.83 109.756 164.968L113.42 81.0479C113.589 77.1856 110.594 73.9179 106.732 73.7492Z" fill="#B7F9BA" stroke="#5FCC48" stroke-width="2"/>
<path d="M66.6212 56.655L11.1003 63.9645C6.17221 64.6133 2.70319 69.1342 3.35198 74.0622L14.3162 157.344C14.965 162.272 19.4859 165.741 24.4139 165.092L79.9348 157.782C84.8629 157.134 88.3319 152.613 87.6831 147.685L76.7189 64.4033C76.0701 59.4752 71.5492 56.0062 66.6212 56.655Z" fill="#FAFAFA" stroke="#5FCC48" stroke-width="2"/>
<path d="M4.34352 73.9316C3.76682 69.5512 6.8504 65.5326 11.2309 64.9559L66.7518 57.6464C71.1323 57.0697 75.1509 60.1533 75.7276 64.5338L77.6855 79.4054L6.30142 88.8033L4.34352 73.9316Z" fill="#B7F9BA"/>
<path d="M89.1119 62.7716C89.9333 62.6635 90.5114 61.91 90.4033 61.0887C90.2952 60.2673 89.5417 59.6892 88.7204 59.7973L81.7802 60.711C80.9589 60.8191 80.3807 61.5726 80.4889 62.3939C80.597 63.2153 81.3505 63.7934 82.1718 63.6853L89.1119 62.7716Z" fill="#5FCC48"/>
<path d="M65.9809 44.1314C65.8728 43.3101 65.1193 42.7319 64.298 42.84C63.4766 42.9482 62.8984 43.7017 63.0066 44.523L63.9203 51.4631C64.0284 52.2844 64.7819 52.8626 65.6032 52.7545C66.4246 52.6464 67.0027 51.8929 66.8946 51.0715L65.9809 44.1314Z" fill="#5FCC48"/>
<path d="M81.8556 48.7811C82.3599 48.1238 82.2359 47.1822 81.5787 46.6779C80.9215 46.1736 79.9798 46.2976 79.4755 46.9548L75.2142 52.5083C74.7099 53.1655 74.8339 54.1071 75.4911 54.6114C76.1483 55.1158 77.0899 54.9918 77.5943 54.3346L81.8556 48.7811Z" fill="#5FCC48"/>
<path d="M69.2846 84.5459L15.7466 91.5944C14.6514 91.7385 13.8805 92.7432 14.0247 93.8383C14.1689 94.9334 15.1735 95.7043 16.2687 95.5601L69.8067 88.5117C70.9018 88.3675 71.6727 87.3629 71.5285 86.2678C71.3844 85.1727 70.3797 84.4018 69.2846 84.5459Z" fill="#DCDCDC"/>
<path d="M71.8949 104.375L18.3569 111.423C17.2618 111.567 16.4909 112.572 16.6351 113.667C16.7793 114.762 17.7839 115.533 18.879 115.389L72.417 108.34C73.5122 108.196 74.2831 107.192 74.1389 106.096C73.9947 105.001 72.9901 104.23 71.8949 104.375Z" fill="#DCDCDC"/>
<path d="M74.5055 124.204L20.9675 131.252C19.8724 131.396 19.1015 132.401 19.2457 133.496C19.3898 134.591 20.3945 135.362 21.4896 135.218L75.0276 128.169C76.1228 128.025 76.8936 127.02 76.7495 125.925C76.6053 124.83 75.6006 124.059 74.5055 124.204Z" fill="#DCDCDC"/>
<path d="M33.6453 97.307L16.7908 99.5259C15.6956 99.6701 14.9247 100.675 15.0689 101.77C15.2131 102.865 16.2177 103.636 17.3129 103.492L34.1674 101.273C35.2625 101.129 36.0334 100.124 35.8893 99.0288C35.7451 97.9337 34.7404 97.1628 33.6453 97.307Z" fill="#B7F9BA"/>
<path d="M36.2557 117.136L19.4011 119.355C18.306 119.499 17.5351 120.504 17.6793 121.599C17.8234 122.694 18.8281 123.465 19.9232 123.321L36.7778 121.102C37.8729 120.958 38.6438 119.953 38.4996 118.858C38.3554 117.763 37.3508 116.992 36.2557 117.136Z" fill="#B7F9BA"/>
<path d="M38.8663 136.965L22.0117 139.184C20.9166 139.328 20.1457 140.333 20.2899 141.428C20.434 142.523 21.4387 143.294 22.5338 143.15L39.3884 140.931C40.4835 140.787 41.2544 139.782 41.1102 138.687C40.966 137.592 39.9614 136.821 38.8663 136.965Z" fill="#B7F9BA"/>
</svg>
